<svg width="42" height="40" viewBox="0 0 42 40" fill="none" xmlns="http://www.w3.org/2000/svg">
<path d="M32.7431 39.844C32.5293 39.8441 32.3179 39.7984 32.1232 39.7101C31.9285 39.6218 31.7549 39.4929 31.6141 39.332L26.8211 33.855C24.8911 34.3518 22.906 34.6022 20.9131 34.6C15.6001 34.6 10.5851 32.87 6.80008 29.735C2.93708 26.535 0.809082 22.25 0.809082 17.676C0.809082 13.102 2.94108 8.82004 6.80008 5.61804C10.5851 2.48304 15.6001 0.756042 20.9131 0.756042C26.2261 0.756042 31.2411 2.48304 35.0231 5.61804C38.8861 8.81804 41.0131 13.103 41.0131 17.676C41.0131 22.558 38.5561 27.136 34.2431 30.348V38.348C34.2431 38.7459 34.085 39.1274 33.8037 39.4087C33.5224 39.69 33.1409 39.848 32.7431 39.848V39.844ZM27.3261 30.656C27.5399 30.656 27.7512 30.7017 27.9459 30.79C28.1407 30.8783 28.3142 31.0072 28.4551 31.168L31.2431 34.353V29.577C31.2434 29.3326 31.3034 29.092 31.4179 28.876C31.5324 28.6601 31.6979 28.4754 31.9001 28.338C35.7881 25.679 38.0171 21.793 38.0171 17.676C38.0171 10.001 30.3461 3.75604 20.9171 3.75604C11.4881 3.75604 3.81708 10.001 3.81708 17.676C3.81708 25.351 11.4841 31.6 20.9131 31.6C22.9374 31.6046 24.9512 31.3094 26.8891 30.724C27.0306 30.6798 27.1778 30.6569 27.3261 30.656Z" fill="#F8FDFE"/>
<path d="M15.5491 21.8C15.5001 21.8 15.4491 21.8 15.4021 21.793C15.3551 21.786 15.3021 21.78 15.2561 21.771C15.2101 21.762 15.1561 21.749 15.1141 21.735C15.0721 21.721 15.0201 21.704 14.9751 21.685C14.9301 21.666 14.8861 21.645 14.8431 21.622C14.7995 21.5992 14.7571 21.5742 14.7161 21.547C14.6761 21.52 14.6361 21.491 14.5981 21.46C14.5601 21.429 14.5231 21.395 14.4881 21.36C14.4531 21.325 14.4201 21.288 14.3881 21.25C14.3561 21.212 14.3281 21.172 14.3011 21.132C14.274 21.091 14.2489 21.0486 14.2261 21.005C14.2028 20.9617 14.1818 20.9177 14.1631 20.873C14.1444 20.8279 14.128 20.7819 14.1141 20.735C14.0992 20.6882 14.0872 20.6404 14.0781 20.592C14.0678 20.5442 14.0605 20.4958 14.0561 20.447C14.0509 20.3979 14.0483 20.3485 14.0481 20.299C14.0482 20.2499 14.0509 20.2009 14.0561 20.152C14.066 20.0541 14.0855 19.9573 14.1141 19.863C14.128 19.8162 14.1444 19.7702 14.1631 19.725C14.1824 19.6804 14.2034 19.6364 14.2261 19.593C14.2489 19.5495 14.274 19.5071 14.3011 19.466C14.3281 19.426 14.3571 19.386 14.3881 19.348C14.4191 19.31 14.4531 19.273 14.4881 19.238C14.5231 19.203 14.5601 19.17 14.5981 19.138C14.6361 19.106 14.6761 19.078 14.7161 19.051C14.7569 19.0236 14.7993 18.9985 14.8431 18.976C14.8864 18.9534 14.9304 18.9324 14.9751 18.913C15.0205 18.8939 15.0669 18.8772 15.1141 18.863C15.1601 18.849 15.2081 18.837 15.2561 18.827C15.3041 18.817 15.3561 18.81 15.4021 18.805C15.5002 18.795 15.599 18.795 15.6971 18.805C15.7451 18.81 15.7971 18.818 15.8421 18.827C15.8871 18.836 15.9421 18.849 15.9851 18.863C16.0319 18.8773 16.078 18.894 16.1231 18.913C16.1681 18.932 16.2131 18.953 16.2561 18.976C16.2994 18.9987 16.3415 19.0238 16.3821 19.051C16.4229 19.078 16.4623 19.1071 16.5001 19.138C16.5381 19.169 16.5751 19.203 16.6101 19.238C16.6451 19.273 16.6781 19.31 16.7101 19.348C16.7421 19.386 16.7701 19.426 16.7971 19.466C16.8242 19.5071 16.8493 19.5495 16.8721 19.593C16.8948 19.6364 16.9158 19.6804 16.9351 19.725C16.9541 19.77 16.9701 19.817 16.9851 19.863C17.0001 19.909 17.0111 19.963 17.0211 20.006C17.0407 20.1025 17.0504 20.2006 17.0501 20.299C17.0503 20.3485 17.0479 20.3979 17.0431 20.447C17.0382 20.4957 17.0309 20.5441 17.0211 20.592C17.0111 20.64 16.9991 20.692 16.9851 20.735C16.9711 20.778 16.9541 20.828 16.9351 20.873C16.9161 20.918 16.8951 20.962 16.8721 21.005C16.8493 21.0486 16.8242 21.091 16.7971 21.132C16.7701 21.172 16.7411 21.212 16.7101 21.25C16.6791 21.288 16.6451 21.325 16.6101 21.36C16.5751 21.395 16.5381 21.428 16.5001 21.46C16.4623 21.491 16.4229 21.5201 16.3821 21.547C16.3408 21.5737 16.2988 21.5987 16.2561 21.622C16.2131 21.645 16.1681 21.666 16.1231 21.685C16.0781 21.704 16.0311 21.72 15.9851 21.735C15.9391 21.75 15.8901 21.761 15.8421 21.771C15.7941 21.781 15.7421 21.788 15.6971 21.793C15.6521 21.798 15.6001 21.8 15.5491 21.8Z" fill="#F8FDFE"/>
<path d="M26.65 21.8C26.6009 21.8002 26.5519 21.7978 26.503 21.793C26.454 21.788 26.403 21.78 26.357 21.771C26.311 21.762 26.257 21.749 26.215 21.735C26.173 21.721 26.122 21.704 26.077 21.685C26.032 21.666 25.987 21.645 25.944 21.622C25.8578 21.5758 25.7761 21.5216 25.7 21.46C25.662 21.429 25.625 21.395 25.591 21.36C25.5559 21.3251 25.5225 21.2883 25.491 21.25C25.46 21.212 25.43 21.172 25.403 21.132C25.3759 21.091 25.3509 21.0486 25.328 21.005C25.3054 20.9617 25.2844 20.9177 25.265 20.873C25.247 20.828 25.23 20.781 25.216 20.735C25.2011 20.6881 25.1891 20.6404 25.18 20.592C25.1607 20.4955 25.1507 20.3974 25.15 20.299C25.1502 20.2496 25.1529 20.2002 25.158 20.151C25.1629 20.1023 25.1703 20.0539 25.18 20.006C25.1891 19.9577 25.2011 19.9099 25.216 19.863C25.23 19.817 25.247 19.77 25.265 19.725C25.283 19.68 25.305 19.636 25.328 19.593C25.3509 19.5494 25.3759 19.5071 25.403 19.466C25.43 19.426 25.46 19.386 25.491 19.348C25.5225 19.3097 25.5559 19.273 25.591 19.238C25.625 19.204 25.662 19.17 25.7 19.138C25.7764 19.0764 25.8584 19.0222 25.945 18.976C25.988 18.953 26.032 18.932 26.078 18.913C26.124 18.894 26.169 18.878 26.216 18.863C26.263 18.848 26.31 18.837 26.358 18.827C26.406 18.817 26.458 18.81 26.504 18.805C26.6038 18.7957 26.7042 18.7957 26.804 18.805C26.852 18.81 26.904 18.818 26.949 18.827C26.994 18.836 27.049 18.849 27.092 18.863C27.135 18.877 27.185 18.894 27.23 18.913C27.275 18.932 27.32 18.953 27.363 18.976C27.406 18.999 27.448 19.024 27.489 19.051C27.53 19.0777 27.5694 19.1068 27.607 19.138C27.645 19.169 27.682 19.203 27.717 19.238C27.752 19.273 27.785 19.31 27.817 19.348C27.849 19.386 27.877 19.426 27.904 19.466C27.9315 19.507 27.9568 19.5494 27.98 19.593C28.002 19.636 28.024 19.68 28.042 19.725C28.0611 19.7701 28.0777 19.8162 28.092 19.863C28.106 19.91 28.118 19.963 28.128 20.006C28.138 20.049 28.145 20.106 28.15 20.151C28.1549 20.2002 28.1572 20.2496 28.157 20.299C28.1572 20.3481 28.1549 20.3972 28.15 20.446C28.145 20.495 28.137 20.546 28.128 20.592C28.119 20.638 28.106 20.692 28.092 20.735C28.0777 20.7818 28.0611 20.8279 28.042 20.873C28.024 20.918 28.002 20.962 27.98 21.005C27.9568 21.0486 27.9315 21.091 27.904 21.132C27.877 21.172 27.848 21.212 27.817 21.25C27.786 21.288 27.752 21.325 27.717 21.36C27.682 21.395 27.645 21.428 27.607 21.46C27.5694 21.4912 27.53 21.5203 27.489 21.547C27.4484 21.5737 27.4064 21.5987 27.363 21.622C27.32 21.645 27.275 21.666 27.23 21.685C27.185 21.704 27.138 21.72 27.092 21.735C27.046 21.75 26.997 21.761 26.949 21.771C26.901 21.781 26.849 21.788 26.804 21.793C26.7529 21.798 26.7014 21.8004 26.65 21.8Z" fill="#F8FDFE"/>
<path d="M21.1001 21.8C20.7024 21.799 20.3212 21.6413 20.0391 21.361C20.0039 21.3261 19.9705 21.2894 19.9391 21.251C19.9081 21.213 19.8791 21.173 19.8511 21.133C19.8231 21.093 19.7991 21.05 19.7761 21.006C19.753 20.9632 19.7323 20.9191 19.7141 20.874C19.695 20.8289 19.6784 20.7829 19.6641 20.736C19.6501 20.689 19.6381 20.636 19.6281 20.593C19.6183 20.5451 19.611 20.4967 19.6061 20.448C19.5965 20.3483 19.5965 20.2478 19.6061 20.148C19.611 20.0994 19.6183 20.051 19.6281 20.003C19.6381 19.955 19.6501 19.903 19.6641 19.86C19.6784 19.8132 19.695 19.7671 19.7141 19.722C19.7323 19.6769 19.753 19.6329 19.7761 19.59C19.7991 19.546 19.8251 19.504 19.8511 19.463C19.8771 19.422 19.9081 19.383 19.9391 19.345C19.9705 19.3067 20.0039 19.27 20.0391 19.235C20.1964 19.0789 20.3862 18.9592 20.595 18.8846C20.8037 18.8099 21.0264 18.7821 21.2471 18.803C21.2961 18.808 21.3471 18.816 21.3931 18.825C21.4391 18.834 21.4881 18.847 21.5351 18.861C21.5821 18.875 21.6281 18.892 21.6731 18.911C21.7181 18.93 21.7631 18.951 21.8061 18.974C21.8927 19.0202 21.9747 19.0744 22.0511 19.136C22.0891 19.167 22.1261 19.201 22.1601 19.236C22.1952 19.271 22.2286 19.3077 22.2601 19.346C22.2911 19.384 22.3211 19.424 22.3481 19.464C22.3752 19.5051 22.4002 19.5475 22.4231 19.591C22.4457 19.6344 22.4667 19.6784 22.4861 19.723C22.5041 19.768 22.5211 19.815 22.5351 19.861C22.55 19.9079 22.562 19.9557 22.5711 20.004C22.5808 20.052 22.5882 20.1004 22.5931 20.149C22.604 20.2487 22.604 20.3493 22.5931 20.449C22.5882 20.4977 22.5808 20.5461 22.5711 20.594C22.562 20.6424 22.55 20.6902 22.5351 20.737C22.5211 20.783 22.5041 20.83 22.4861 20.875C22.4681 20.92 22.4461 20.964 22.4231 21.007C22.4002 21.0506 22.3752 21.093 22.3481 21.134C22.3211 21.174 22.2911 21.214 22.2601 21.252C22.2286 21.2904 22.1952 21.3271 22.1601 21.362C22.1261 21.396 22.0891 21.429 22.0511 21.462C21.9747 21.5236 21.8927 21.5779 21.8061 21.624C21.7631 21.647 21.7181 21.668 21.6731 21.687C21.6281 21.706 21.5821 21.722 21.5351 21.737C21.4881 21.752 21.4351 21.763 21.3931 21.773C21.3511 21.783 21.2931 21.79 21.2471 21.795C21.1982 21.7992 21.1491 21.8009 21.1001 21.8Z" fill="#F8FDFE"/>
</svg>
