<svg width="10" height="17" viewBox="0 0 10 17" fill="none" xmlns="http://www.w3.org/2000/svg">
<path d="M0.55458 9.49248L7.67478 16.6126C7.83946 16.7774 8.0593 16.8682 8.2937 16.8682C8.52811 16.8682 8.74794 16.7774 8.91262 16.6126L9.43698 16.0883C9.77818 15.7467 9.77818 15.1916 9.43698 14.8505L3.45797 8.87148L9.44361 2.88584C9.60829 2.72103 9.69922 2.50132 9.69922 2.26705C9.69922 2.03251 9.60829 1.81281 9.44361 1.64787L8.91926 1.12377C8.75445 0.958961 8.53474 0.868165 8.30034 0.868165C8.06593 0.868165 7.8461 0.958961 7.68141 1.12377L0.55458 8.25035C0.389508 8.41568 0.298842 8.63643 0.299362 8.87109C0.298842 9.10667 0.389508 9.32728 0.55458 9.49248Z" fill="#666666"/>
</svg>
