<svg width="25" height="18" viewBox="0 0 25 18" fill="none" xmlns="http://www.w3.org/2000/svg">
<path d="M5.18848 8.2644H11.3291C11.869 8.2644 12.3619 8.4685 12.7354 8.80323C13.1089 8.46845 13.6017 8.2644 14.1416 8.2644H20.2822V0.723858C20.2822 0.337373 19.973 0.0157637 19.5865 0.0144043C19.5807 0.0144043 19.8264 0.0144043 5.8916 0.0144043C5.49148 0.0144043 5.18848 0.342436 5.18848 0.723858V8.2644Z" fill="#666666"/>
<path d="M13.4385 10.3738V12.0144H20.2822C20.2822 10.9758 20.2822 10.7625 20.2822 9.67065H14.1416C13.7539 9.67065 13.4385 9.98608 13.4385 10.3738Z" fill="#666666"/>
<path d="M22.4625 4.89051C22.0291 4.90401 21.6885 5.26757 21.6885 5.70116C21.6885 5.81245 21.6885 13.1169 21.6885 12.7176C21.6885 13.1059 21.3737 13.4207 20.9854 13.4207C20.4232 13.4207 3.95159 13.4207 4.48535 13.4207C4.09704 13.4207 3.78223 13.1059 3.78223 12.7176C3.78223 12.4581 3.78223 5.63352 3.78223 5.70116C3.78223 5.26757 3.44159 4.90401 3.00818 4.89051C1.75896 4.8516 0.735352 5.85098 0.735352 7.09256V14.3113C0.735352 15.4763 1.67974 16.4207 2.84473 16.4207H3.78223V17.1977C3.78223 17.5763 4.07318 17.9021 4.45137 17.9199C4.85515 17.9389 5.18848 17.6172 5.18848 17.2176V16.4207H20.2822V17.1977C20.2822 17.5763 20.5732 17.9021 20.9514 17.9199C21.3551 17.9389 21.6885 17.6172 21.6885 17.2176V16.4207H22.626C23.791 16.4207 24.7354 15.4763 24.7354 14.3113V7.13216C24.7354 5.83415 23.7037 4.85184 22.4625 4.89051Z" fill="#666666"/>
<path d="M12.0322 10.3738C12.0322 9.98608 11.7168 9.67065 11.3291 9.67065H5.18848V12.0144H12.0322V10.3738Z" fill="#666666"/>
</svg>
