<svg width="25" height="25" viewBox="0 0 25 25" fill="none" xmlns="http://www.w3.org/2000/svg">
<g clip-path="url(#clip0_6_21)">
<path d="M10.9167 0.787354C5.08911 0.787354 0.347656 5.5322 0.347656 11.364C0.347656 17.1961 5.08911 21.9407 10.9167 21.9407C16.7447 21.9407 21.4858 17.1961 21.4858 11.364C21.4858 5.5322 16.7447 0.787354 10.9167 0.787354ZM10.9167 19.9881C6.16489 19.9881 2.29887 16.1193 2.29887 11.3641C2.29887 6.6088 6.16489 2.73997 10.9167 2.73997C15.6686 2.73997 19.5346 6.60875 19.5346 11.364C19.5346 16.1193 15.6686 19.9881 10.9167 19.9881Z" fill="#244D4D"/>
<path d="M24.0616 23.138L18.4681 17.5405C18.087 17.159 17.4697 17.159 17.0886 17.5405C16.7074 17.9215 16.7074 18.5399 17.0886 18.921L22.6821 24.5185C22.8727 24.7092 23.1221 24.8045 23.3719 24.8045C23.6213 24.8045 23.871 24.7092 24.0616 24.5185C24.4428 24.1374 24.4428 23.5191 24.0616 23.138Z" fill="#244D4D"/>
</g>
<defs>
<clipPath id="clip0_6_21">
<rect width="24" height="24.0333" fill="white" transform="translate(0.347656 0.769531)"/>
</clipPath>
</defs>
</svg>
