<svg width="20" height="20" viewBox="0 0 20 20" fill="none" xmlns="http://www.w3.org/2000/svg">
<path d="M20 3.86139L15.4 0L14.1 1.48515L18.7 5.34653L20 3.86139ZM5.9 1.58416L4.6 0.0990099L0 3.86139L1.3 5.34653L5.9 1.58416ZM10.5 6.13861H9V12.0792L13.7 14.9505L14.5 13.7624L10.5 11.3861V6.13861ZM10 2.17822C5 2.17822 1 6.13861 1 11.0891C1 16.0396 5 20 10 20C15 20 19 16.0396 19 11.0891C19 6.13861 15 2.17822 10 2.17822ZM10 18.0198C6.1 18.0198 3 14.9505 3 11.0891C3 7.22772 6.1 4.15842 10 4.15842C13.9 4.15842 17 7.22772 17 11.0891C17 14.9505 13.9 18.0198 10 18.0198Z" fill="#EEEEEE"/>
</svg>
