<svg width="19" height="20" viewBox="0 0 19 20" fill="none" xmlns="http://www.w3.org/2000/svg">
<path fill-rule="evenodd" clip-rule="evenodd" d="M19 10.2089C19 9.55716 18.9415 8.93048 18.8329 8.32886H10.1763V11.8843H15.1229C14.9098 13.0332 14.2623 14.0066 13.2888 14.6584V16.9646H16.2593C17.9973 15.3645 19 13.0081 19 10.2089Z" fill="#4285F4"/>
<path fill-rule="evenodd" clip-rule="evenodd" d="M10.1759 19.1914C12.6576 19.1914 14.7382 18.3683 16.259 16.9646L13.2885 14.6583C12.4654 15.2098 11.4126 15.5357 10.1759 15.5357C7.78199 15.5357 5.7557 13.9189 5.03292 11.7463H1.96216V14.1277C3.47456 17.1317 6.58293 19.1914 10.1759 19.1914Z" fill="#34A853"/>
<path fill-rule="evenodd" clip-rule="evenodd" d="M5.03326 11.7463C4.84943 11.1949 4.74498 10.6058 4.74498 9.99997C4.74498 9.39417 4.84943 8.80509 5.03326 8.2536V5.87219H1.96249C1.33999 7.11303 0.984863 8.51681 0.984863 9.99997C0.984863 11.4831 1.33999 12.8869 1.96249 14.1277L5.03326 11.7463Z" fill="#FBBC05"/>
<path fill-rule="evenodd" clip-rule="evenodd" d="M10.1759 4.46427C11.5254 4.46427 12.737 4.92802 13.6896 5.8388L16.3258 3.20254C14.734 1.71938 12.6534 0.808594 10.1759 0.808594C6.58293 0.808594 3.47456 2.8683 1.96216 5.87222L5.03292 8.25363C5.7557 6.08112 7.78199 4.46427 10.1759 4.46427Z" fill="#EA4335"/>
</svg>
