<svg width="18" height="18" viewBox="0 0 18 18" fill="none" xmlns="http://www.w3.org/2000/svg">
<path fill-rule="evenodd" clip-rule="evenodd" d="M2.75215 8.7296C3.03374 10.1583 3.90928 11.4544 5.08913 12.5873C6.26208 13.7135 7.61697 14.5629 8.61369 15.1013C8.93317 15.2739 9.29953 15.2739 9.61901 15.1013C10.6157 14.5629 11.9706 13.7135 13.1436 12.5873C14.3234 11.4544 15.199 10.1584 15.4805 8.72962C15.7247 7.49095 15.4594 5.98145 14.5372 4.80526C13.6623 3.68947 12.0295 2.66663 9.11635 2.66663C6.20319 2.66663 4.57036 3.68947 3.69548 4.80527C2.77327 5.98145 2.50802 7.49095 2.75215 8.7296ZM0.7899 9.11634C1.56839 13.0662 5.49104 15.6878 7.66321 16.861C8.57585 17.354 9.65684 17.354 10.5695 16.861C12.7417 15.6878 16.6643 13.0662 17.4428 9.11634C18.1367 5.59563 15.9732 0.666626 9.11635 0.666626C2.25952 0.666626 0.0959959 5.59563 0.7899 9.11634ZM8.29977 7.70806C8.29977 8.15904 8.66536 8.52463 9.11634 8.52463C9.56732 8.52463 9.93291 8.15904 9.93291 7.70806C9.93291 7.25708 9.56732 6.89148 9.11634 6.89148C8.66536 6.89148 8.29977 7.25708 8.29977 7.70806ZM6.29977 7.70806C6.29977 9.26361 7.56079 10.5246 9.11634 10.5246C10.6719 10.5246 11.9329 9.26361 11.9329 7.70806C11.9329 6.15251 10.6719 4.89148 9.11634 4.89148C7.56079 4.89148 6.29977 6.15251 6.29977 7.70806Z" fill="#131A34"/>
</svg>
