<svg width="194" height="100" viewBox="0 0 194 100" fill="none" xmlns="http://www.w3.org/2000/svg">
<path fill-rule="evenodd" clip-rule="evenodd" d="M24.2203 34.2727C23.2847 31.2666 21.8828 28.7716 20.0147 26.7878C18.0621 24.3312 15.4123 23.4858 12.0651 24.2515C8.71791 25.0171 6.30427 27.2995 4.82416 31.0986C2.63988 33.3184 1.26929 35.7982 0.712386 38.538C0.155487 41.2778 0.444765 44.1179 1.58022 47.0581C3.5961 51.7177 6.67772 54.6544 10.8251 55.8683C14.9724 57.0822 19.4375 56.3543 24.2203 53.6847C34.6362 54.4769 44.6649 56.0948 54.3065 58.5383C63.9482 60.9819 72.345 64.0337 79.497 67.6939C80.4771 69.6638 82.0793 71.3424 84.3035 72.7297C86.5277 74.1169 88.6942 74.7888 90.8031 74.7455L105.158 73.9728C106.731 73.9743 108.093 73.7386 109.244 73.2656C110.394 72.7926 111.381 72.0626 112.205 71.0755C119.837 71.9956 127.517 72.547 135.245 72.7297C142.973 72.9123 150.462 72.7195 157.711 72.1513L161.077 67.2009C166.84 66.5771 172.52 65.7389 178.118 64.6862C183.715 63.6334 188.798 62.4473 193.367 61.1278C184.236 62.7641 173.953 63.9502 162.516 64.6862C151.08 65.4221 139.814 65.6228 128.719 65.2881C131.719 66.1351 135.52 66.7727 140.122 67.2009C144.725 67.6291 149.543 67.7934 154.577 67.6939L153.332 69.7843C143.494 70.1554 134.698 70.1554 126.944 69.7843C119.19 69.4132 113.426 68.7164 109.653 67.6939L104.377 47.0581C103.199 41.5831 100.708 37.0341 96.9022 33.4109C93.0965 29.7878 88.7849 29.152 83.9673 31.5035C79.7883 34.534 77.0403 38.8999 75.7232 44.6011C74.4062 50.3024 74.7684 56.2644 76.8098 62.4874L69.41 56.9673C62.5592 55.4987 55.6831 54.3225 48.7814 53.4387C41.8798 52.5548 34.2976 51.8794 26.0348 51.4124V47.8265C31.6088 48.0875 37.1556 48.5077 42.6754 49.0872C48.1952 49.6666 54.0353 50.4417 60.1957 51.4124L66.1172 29.6873L58.5759 49.336L30.27 46.1298C29.9899 44.4883 29.6691 43.0898 29.3078 41.9344C28.9464 40.7789 28.2589 38.9537 27.2453 36.4588L28.9233 46.1298H26.0348C25.7608 41.2313 25.156 37.2789 24.2203 34.2727ZM89.1698 57.2324L91.9405 56.5284L96.1622 65.9021L96.0603 66.0043C95.0723 66.9817 94.0045 67.6622 92.857 68.0459C91.6699 68.4429 90.3341 68.5434 88.8494 68.3474L89.1698 57.2324ZM79.4515 56.3287L86.7337 53.2917L88.1669 56.3287L83.0926 64.6394C82.1263 63.3749 81.3612 62.0992 80.7973 60.8121C80.2335 59.5251 79.7849 58.0306 79.4515 56.3287ZM92.857 50.9777L99.8567 47.0938C100.406 48.7173 100.68 50.579 100.68 52.6788C100.68 54.7786 100.406 56.8742 99.8567 58.9656L92.857 54.5818V50.9777ZM88.537 52.5326C88.537 51.7376 89.1827 51.0931 89.9791 51.0931C90.7755 51.0931 91.4211 51.7376 91.4211 52.5326C91.4211 53.3276 90.7755 53.9721 89.9791 53.9721C89.1827 53.9721 88.537 53.3276 88.537 52.5326ZM14.787 45.2757L17.2379 44.4496L21.3241 50.5599L21.2138 50.6455C20.29 51.3511 19.2493 51.8564 18.0918 52.1612C16.888 52.4783 15.538 52.5839 14.0416 52.478L14.787 45.2757ZM80.9277 43.1182C81.6471 41.5988 82.576 40.1772 83.7146 38.8533L88.1669 48.3486L86.7738 50.9777L79.4515 47.8581L79.4844 47.6615C79.7561 46.0913 80.2372 44.5769 80.9277 43.1182ZM5.11961 43.8745L11.6815 42.2393L13.1242 44.1676L8.93361 49.7755L8.82172 49.7014C7.93254 49.101 7.18533 48.3326 6.58009 47.3961C5.94964 46.4207 5.46281 45.2468 5.11961 43.8745ZM89.5518 47.6538V36.2148C90.9812 36.3795 92.2384 36.7555 93.3235 37.3428C94.4086 37.9302 95.3548 38.7468 96.1622 39.7927L91.9646 48.9123L89.5518 47.6538ZM17.8325 40.5087L24.716 37.9089C25.2347 39.0027 25.5133 40.1708 25.552 41.4129C25.5907 42.6551 25.3901 43.992 24.9501 45.4236L18.0876 43.0784L17.8325 40.5087ZM13.5507 41.6337C13.5507 40.7252 14.2885 39.9886 15.1987 39.9886C16.1089 39.9886 16.8468 40.7252 16.8468 41.6337C16.8468 42.5423 16.1089 43.2788 15.1987 43.2788C14.2885 43.2788 13.5507 42.5423 13.5507 41.6337ZM6.71162 35.3441C7.44725 34.3415 8.42989 33.4114 9.65954 32.5537L13.6209 38.6191L12.237 40.8008L5.20925 38.6191L5.24098 38.4833C5.51406 37.3546 6.00428 36.3082 6.71162 35.3441ZM151.312 29.2887C150.473 28.173 148.998 26.4029 146.888 23.9786L150.949 31.7627C146.869 31.5208 142.95 31.3998 139.191 31.3998C135.432 31.3998 130.716 31.5208 125.045 31.7627C124.415 31.7821 124.023 31.9839 123.87 32.3681C123.716 32.7523 123.833 33.2404 124.218 33.8322C127.751 33.4416 131.366 33.2012 135.063 33.1111C138.761 33.021 143.071 33.0683 147.993 33.2529L125.579 34.8169L127.853 36.2148C131.377 35.8966 134.699 35.7375 137.818 35.7375C140.937 35.7375 144.19 35.8395 147.575 36.0437L130.284 37.0246L133.228 38.4495H145.918L137.089 39.2L153.306 40.3158C154.62 40.2552 155.388 39.8833 155.61 39.2C155.831 38.5167 155.595 37.2499 154.9 35.3996L180.506 34.8169L153.76 33.1111C152.968 31.6786 152.152 30.4045 151.312 29.2887ZM14.744 30.986L14.8824 30.9669C16.0359 30.8169 17.1902 30.8987 18.3453 31.2124C19.5466 31.5387 20.7687 32.1211 22.0115 32.9596L17.7584 38.825L15.2221 38.3171L14.744 30.986ZM82.2438 22.7197L14.2286 20.1492C11.133 20.1492 8.4124 21.1317 6.06688 23.0967C3.72136 25.0618 2.55488 27.2586 2.56744 29.6873C3.46878 26.9585 5.37612 24.9085 8.28947 23.5373C11.2028 22.1661 14.6412 21.7001 18.6047 22.1393L73.2274 26.2726L72.2818 29.6873H76.8051L82.2438 22.7197ZM122.73 3.4475C112.889 2.35209 102.453 1.77945 91.4211 1.72956C96.6155 3.32423 102.15 5.41342 108.025 7.99714C113.9 10.5809 119.748 13.4971 125.567 16.746C134.131 16.3324 142.521 16.3324 150.736 16.746C158.952 17.1595 167.195 17.9969 175.467 19.2579C169.852 17.6519 162.683 16.3341 153.96 15.3046C145.237 14.2751 136.494 13.7148 127.731 13.6238L106.235 4.34392C116.367 4.63333 124.828 5.08464 131.619 5.69786C138.411 6.31108 145.256 7.24189 152.155 8.49028C142.378 6.22383 132.57 4.5429 122.73 3.4475ZM95.9053 8.60998C91.863 6.13369 85.9855 3.95558 78.2729 2.07563C70.5602 0.195681 64.9196 -0.40723 61.3509 0.266893C56.7993 1.6669 52.7188 3.60691 49.1094 6.08694C45.5 8.56697 43.4478 10.1936 42.9529 10.9669L51.1665 5.79567C56.1257 3.36181 59.6536 2.02843 61.7504 1.79553C63.8471 1.56264 65.8972 1.656 67.9009 2.07563C73.081 3.01717 77.5088 4.07807 81.1842 5.25832C84.8596 6.43858 88.6722 8.02384 92.622 10.0141C95.0434 11.7888 95.5136 13.0798 94.0327 13.887C92.5518 14.6942 88.8435 15.1682 82.9078 15.309L36.1365 16.1047L39.5774 13.1563C33.7027 12.984 28.5838 13.3076 24.2206 14.1271C19.8575 14.9467 16.0422 16.3013 12.7749 18.1909C16.3168 16.9492 19.9913 16.0828 23.7982 15.5917C27.6052 15.1005 31.377 15.0063 35.1137 15.309L32.6497 17.5349C42.8738 18.1602 53.053 18.499 63.1873 18.5513C63.9981 18.5555 64.8239 18.5579 65.6648 18.5586L66.6172 18.5586C76.0979 18.5515 87.4445 18.3272 100.657 17.8859C103.46 17.603 104.679 16.744 104.314 15.309C103.949 13.8739 101.146 11.6409 95.9053 8.60998ZM140.253 99.0641C141.323 99.688 142.595 100 144.07 100C144.865 100 145.544 99.9554 146.108 99.8663C146.672 99.7772 147.17 99.6509 147.604 99.4875C148.052 99.3241 148.486 99.131 148.905 98.9082L149.144 95.3654H148.775L147.474 97.7495C147.055 98.0318 146.57 98.2917 146.021 98.5294C145.486 98.7522 144.821 98.8636 144.026 98.8636C143.087 98.8636 142.227 98.6037 141.446 98.0837C140.68 97.549 140.065 96.784 139.603 95.7887C139.155 94.7786 138.931 93.568 138.931 92.1568C138.931 90.9536 139.162 89.8915 139.625 88.9706C140.102 88.0347 140.745 87.2994 141.554 86.7647C142.378 86.2299 143.311 85.9625 144.352 85.9625C144.872 85.9625 145.335 86.0517 145.739 86.2299C146.158 86.4082 146.643 86.6978 147.192 87.0989L148.515 89.8173H148.905L148.797 85.918C148.392 85.71 147.987 85.5318 147.582 85.3832C147.192 85.2198 146.744 85.0935 146.238 85.0044C145.732 84.9004 145.118 84.8485 144.395 84.8485C143.383 84.8485 142.422 85.0638 141.511 85.4946C140.615 85.9254 139.82 86.5121 139.126 87.2549C138.446 87.9976 137.904 88.8517 137.5 89.8173C137.109 90.7679 136.914 91.7706 136.914 92.8253C136.914 94.2067 137.203 95.4397 137.781 96.524C138.36 97.5936 139.184 98.4403 140.253 99.0641ZM0.4375 99.7772V99.4206L2.17217 98.5294V86.319L0.4375 85.4278V85.0713H10.8238V88.9037H10.4769L9.13254 86.2968H4.12368V91.5775H7.59302L8.67719 89.7281H9.02413V94.6078H8.67719L7.59302 92.803H4.12368V98.5294L6.07518 99.4206V99.7772H0.4375ZM21.5008 99.7772V99.4206L23.0403 98.6854V88.3912L21.5008 87.6559V87.2994H26.6397V87.6559L24.8834 88.3912V98.6631H29.5887L30.868 95.4991H31.2149V99.7772H21.5008ZM43.3975 99.4206V99.7772H48.6232V99.4206L46.9319 98.6854V93.9171L50.7482 88.3467L52.1793 87.6559V87.2994H47.9293V87.6559L49.2954 88.369V88.4358L46.4332 92.7139L43.2891 88.4135V88.3244L44.5901 87.6559V87.2994H39.7113V87.6559L41.1207 88.3244L45.0888 93.828V98.6854L43.3975 99.4206ZM62.1899 99.7772V99.4206L63.621 98.6854V88.3912L62.1899 87.6559V87.2994H66.9386V87.6559L65.4641 88.3912V98.6854L66.9386 99.4206V99.7772H62.1899ZM77.5096 99.4206V99.7772H82.1065V99.4206L80.2417 98.6185V89.9732L88.2429 99.8663H89.0886V88.369L90.6064 87.6559V87.2994H86.0529V87.6559L87.896 88.369V96.4572L80.5453 87.2994H77.5096V87.6559L79.0491 88.369V98.6854L77.5096 99.4206ZM107.471 100C106.257 100 105.173 99.74 104.219 99.2201C103.279 98.6853 102.535 97.9575 101.985 97.0365C101.436 96.1155 101.161 95.0683 101.161 93.8948C101.161 92.9144 101.335 92.0157 101.682 91.1987C102.029 90.3669 102.506 89.6464 103.113 89.0374C103.72 88.4135 104.421 87.9307 105.216 87.5891C106.026 87.2474 106.886 87.0766 107.796 87.0766C108.779 87.0766 109.553 87.1657 110.117 87.344C110.68 87.5074 111.23 87.7228 111.765 87.9902L111.873 91.1542H111.569L110.355 89.0151C109.835 88.6438 109.387 88.3912 109.011 88.2575C108.649 88.109 108.23 88.0347 107.753 88.0347C106.799 88.0347 105.953 88.2501 105.216 88.6809C104.479 89.0968 103.893 89.6761 103.46 90.4189C103.041 91.1616 102.831 92.0009 102.831 92.9367C102.831 94.1993 103.055 95.2763 103.503 96.1675C103.966 97.0439 104.58 97.7198 105.346 98.1952C106.112 98.6556 106.965 98.8859 107.905 98.8859C108.353 98.8859 108.779 98.8562 109.184 98.7968C109.603 98.7373 110.03 98.6111 110.464 98.418V95.3208L108.794 94.5632V94.2513H113.412V94.5632L112.133 95.3877V98.3957C111.757 98.7225 111.302 99.0047 110.767 99.2424C110.247 99.4801 109.697 99.6657 109.119 99.7994C108.541 99.9331 107.992 100 107.471 100ZM159.166 99.7772V99.4206L160.271 98.8413L165.085 87.188H165.996L170.788 98.819L172.046 99.4206V99.7772H167.319V99.4206L168.836 98.7968L167.47 95.41H162.96L161.594 98.8413L163.199 99.4206V99.7772H159.166ZM163.416 94.2959H167.015L165.194 89.795L163.416 94.2959ZM181.918 99.4206V99.7772H186.732V99.4206L185.301 98.6631V94.0953H186.775L190.288 99.7772H193.367V99.4206L191.936 98.7522L188.575 93.5606C189.355 93.2635 189.962 92.855 190.396 92.3351C190.844 91.8152 191.068 91.1913 191.068 90.4634C191.068 89.483 190.678 88.7106 189.897 88.1461C189.131 87.5817 188.076 87.2994 186.732 87.2994H181.918V87.6559L183.479 88.3912V98.6854L181.918 99.4206ZM185.301 88.4135H186.428C187.281 88.4135 187.939 88.6066 188.401 88.9928C188.878 89.3642 189.117 89.9287 189.117 90.6862C189.117 91.3993 188.878 91.9637 188.401 92.3796C187.939 92.7807 187.317 92.9812 186.537 92.9812H185.301V88.4135Z" fill="url(#paint0_linear_103_159)"/>
<defs>
<linearGradient id="paint0_linear_103_159" x1="-93.8732" y1="49.9837" x2="-13.0867" y2="205.844" gradientUnits="userSpaceOnUse">
<stop stop-color="#7474BF"/>
<stop offset="1" stop-color="#348AC7"/>
</linearGradient>
</defs>
</svg>
